<svg width="100" height="100" viewBox="0 0 100 100" fill="none" xmlns="http://www.w3.org/2000/svg">
<path d="M39.7137 39.1716H40.1852C40.564 39.1716 40.9274 39.0211 41.1953 38.7532C41.4632 38.4853 41.6137 38.1219 41.6137 37.743C41.6137 37.3641 41.4632 37.0008 41.1953 36.7329C40.9274 36.465 40.564 36.3145 40.1852 36.3145H39.7137C39.3348 36.3145 38.9715 36.465 38.7036 36.7329C38.4357 37.0008 38.2852 37.3641 38.2852 37.743C38.2852 38.1219 38.4357 38.4853 38.7036 38.7532C38.9715 39.0211 39.3348 39.1716 39.7137 39.1716Z" fill="#07122B"/>
<path d="M49.87 39.1716H50.3414C50.7203 39.1716 51.0836 39.0211 51.3516 38.7532C51.6195 38.4853 51.77 38.1219 51.77 37.743C51.77 37.3641 51.6195 37.0008 51.3516 36.7329C51.0836 36.465 50.7203 36.3145 50.3414 36.3145H49.87C49.4911 36.3145 49.1277 36.465 48.8598 36.7329C48.5919 37.0008 48.4414 37.3641 48.4414 37.743C48.4414 38.1219 48.5919 38.4853 48.8598 38.7532C49.1277 39.0211 49.4911 39.1716 49.87 39.1716Z" fill="#07122B"/>
<path d="M39.4261 46.9717C39.2317 47.2958 39.1737 47.6837 39.2647 48.0506C39.3558 48.4174 39.5884 48.7332 39.9118 48.9288C41.6161 49.9005 43.5362 50.4309 45.4976 50.4717C47.278 50.4925 49.0155 49.925 50.4404 48.8574C50.7454 48.6319 50.9484 48.2946 51.0046 47.9195C51.0609 47.5444 50.9658 47.1624 50.7404 46.8574C50.515 46.5524 50.1776 46.3494 49.8025 46.2932C49.4275 46.2369 49.0454 46.3319 48.7404 46.5574C45.569 48.9288 41.5976 46.5574 41.3833 46.486C41.0591 46.2916 40.6712 46.2335 40.3044 46.3245C39.9375 46.4156 39.6217 46.6483 39.4261 46.9717Z" fill="#07122B"/>
<path d="M74.3979 57.9858C73.9979 56.0429 73.4122 53.9429 72.7836 51.6858C71.2693 46.2858 69.5693 40.1429 70.0693 34.9429C70.4627 31.9156 70.1196 28.838 69.0693 25.9715C70.0344 24.5143 70.5491 22.8051 70.5491 21.0572C70.5491 19.3094 70.0344 17.6002 69.0693 16.1429C66.931 12.9456 63.922 10.4273 60.3979 8.8858C56.2111 6.66626 51.5021 5.61983 46.7693 5.85723C44.4346 5.9369 42.1394 6.48361 40.0195 7.46507C37.8996 8.44652 35.9978 9.84283 34.4265 11.5715C22.8407 12.6715 20.8979 26.3001 21.1407 31.0858C21.1407 32.2144 21.3122 33.3429 21.4122 34.4572C21.651 36.352 21.7369 38.2629 21.6693 40.1715C21.6314 40.4128 21.6075 40.656 21.5979 40.9001C21.5979 40.9001 21.5979 41.0001 21.5979 41.0429C21.6049 41.1142 21.6049 41.186 21.5979 41.2572C21.0493 44.425 20.0284 47.4925 18.5693 50.3572L18.1122 51.3429C16.6836 54.6715 15.0407 58.5572 15.255 62.6572C15.3432 65.7223 16.6126 68.6347 18.7979 70.7858C16.4429 74.2758 15.1843 78.3898 15.1836 82.6001C15.1836 82.979 15.3341 83.3423 15.602 83.6102C15.8699 83.8782 16.2333 84.0287 16.6122 84.0287C16.991 84.0287 17.3544 83.8782 17.6223 83.6102C17.8902 83.3423 18.0407 82.979 18.0407 82.6001C18.0632 77.7547 19.9961 73.1138 23.4196 69.6848C26.8432 66.2559 31.4811 64.3158 36.3265 64.2858H36.6122V64.7287C36.6384 66.8912 37.515 68.9564 39.0522 70.4776C40.5895 71.9988 42.6638 72.8536 44.8265 72.8572H45.2264C47.4063 72.8534 49.4956 71.9848 51.0357 70.4421C52.5758 68.8993 53.4407 66.8085 53.4407 64.6287V64.2858C54.5779 64.3535 55.7065 64.5256 56.8122 64.8001C54.787 67.746 53.7588 71.2631 53.8782 74.8359C53.9977 78.4088 55.2585 81.8494 57.4759 84.6534C59.6933 87.4574 62.7507 89.4774 66.1998 90.4172C69.6489 91.3569 73.3084 91.1671 76.6417 89.8754C79.975 88.5838 82.8069 86.2583 84.7223 83.2399C86.6376 80.2214 87.5357 76.6688 87.2848 73.1028C87.0339 69.5368 85.6472 66.1449 83.328 63.4244C81.0089 60.704 77.8792 58.7979 74.3979 57.9858V57.9858ZM56.7264 74.2858C56.7264 71.5423 57.54 68.8604 59.0642 66.5792C60.5884 64.2981 62.7548 62.5202 65.2895 61.4703C67.8242 60.4204 70.6133 60.1457 73.3041 60.6809C75.9949 61.2161 78.4665 62.5373 80.4065 64.4772C82.3464 66.4172 83.6675 68.8888 84.2028 71.5796C84.738 74.2704 84.4633 77.0595 83.4134 79.5942C82.3635 82.1288 80.5856 84.2953 78.3044 85.8195C76.0233 87.3437 73.3414 88.1572 70.5979 88.1572C66.9213 88.1497 63.3974 86.6858 60.7976 84.086C58.1979 81.4863 56.734 77.9624 56.7264 74.2858V74.2858ZM70.5979 57.5572C68.4116 57.5541 66.2463 57.9828 64.2262 58.8188C62.2062 59.6547 60.3711 60.8815 58.8265 62.4287C57.0826 61.8615 55.272 61.5253 53.4407 61.4287V60.1429C56.2541 59.1777 58.7213 57.4061 60.5351 55.0488C62.3488 52.6915 63.4289 49.8526 63.6407 46.8858C63.8122 46.8858 63.9693 46.8858 64.1407 46.8858C65.6465 46.8831 67.0956 46.3116 68.1979 45.2858C68.7265 47.7144 69.3979 50.1144 70.0407 52.4287C70.5264 54.2001 71.0122 55.9429 71.3836 57.5429C71.1265 57.5572 70.8693 57.5287 70.5979 57.5287V57.5572ZM39.4693 64.7001V60.7001C40.4421 60.9017 41.433 61.0023 42.4265 61.0001H48.5693C49.2437 60.9986 49.9171 60.946 50.5836 60.8429V64.7001C50.5648 66.1098 49.9926 67.4556 48.9904 68.4472C47.9882 69.4387 46.6363 69.9965 45.2264 70.0001H44.8265C43.4117 69.9964 42.0556 69.4347 41.0526 68.437C40.0495 67.4393 39.4806 66.0862 39.4693 64.6715V64.7001ZM24.5265 40.2715C24.6727 39.6232 25.0189 39.0372 25.5162 38.5963C26.0135 38.1554 26.6367 37.8819 27.2979 37.8144V44.0572C26.5458 43.9897 25.8432 43.6538 25.3186 43.1107C24.794 42.5677 24.4823 41.854 24.4407 41.1001C24.4979 40.8144 24.5265 40.5429 24.5265 40.2715ZM63.6836 37.8287C63.8407 37.8287 63.9836 37.8287 64.1407 37.8287C64.5722 37.7996 65.0051 37.8595 65.4125 38.0046C65.8199 38.1498 66.1932 38.3771 66.5091 38.6724C66.825 38.9678 67.0769 39.3249 67.2491 39.7216C67.4213 40.1183 67.5101 40.5462 67.5101 40.9787C67.5101 41.4111 67.4213 41.839 67.2491 42.2357C67.0769 42.6325 66.825 42.9896 66.5091 43.2849C66.1932 43.5803 65.8199 43.8076 65.4125 43.9527C65.0051 44.0978 64.5722 44.1577 64.1407 44.1287C63.9836 44.1287 63.8407 44.1287 63.6836 44.1287V37.8287ZM66.9264 28.6715C67.3742 30.6341 67.4757 32.6597 67.2265 34.6572C67.2265 35.0287 67.2265 35.4001 67.2265 35.7858C66.3135 35.2304 65.2665 34.9341 64.1979 34.9287C64.0407 34.9287 63.8979 34.9287 63.7407 34.9287V30.6429C64.8919 30.1424 65.9648 29.4784 66.9264 28.6715V28.6715ZM25.7122 21.4287C27.6407 16.9572 30.8264 14.5572 35.1836 14.2858C35.3932 14.2751 35.5979 14.2184 35.783 14.1196C35.9682 14.0208 36.1294 13.8825 36.255 13.7144C37.5794 12.1656 39.2128 10.9107 41.0505 10.03C42.8882 9.1493 44.8896 8.66225 46.9264 8.60009C51.1636 8.43645 55.3671 9.4133 59.0979 11.4287C62.1299 12.7442 64.7294 14.8882 66.5979 17.6144C67.3315 18.6908 67.7082 19.9706 67.6749 21.2729C67.6416 22.5751 67.1999 23.834 66.4122 24.8715C64.6836 27.7287 60.9693 28.7715 58.9122 29.1572C53.355 30.1429 45.4979 30.1144 39.6265 24.4144C39.4962 24.267 39.3369 24.148 39.1585 24.065C38.9801 23.9821 38.7865 23.9368 38.5899 23.9321C38.3932 23.9275 38.1977 23.9635 38.0156 24.0379C37.8334 24.1123 37.6687 24.2235 37.5315 24.3646C37.3944 24.5056 37.2879 24.6735 37.2187 24.8577C37.1495 25.0418 37.119 25.2383 37.1293 25.4347C37.1395 25.6312 37.1903 25.8234 37.2783 25.9994C37.3663 26.1753 37.4897 26.3312 37.6407 26.4572C38.8923 27.6775 40.2941 28.7336 41.8122 29.6001C46.6407 32.3429 52.6122 33.1715 59.4122 31.9715C59.8693 31.9001 60.3407 31.7858 60.8407 31.6715V45.8572C60.8332 49.1082 59.5374 52.2236 57.2373 54.521C54.9372 56.8185 51.8203 58.1106 48.5693 58.1144H42.4265C39.173 58.1106 36.0539 56.8165 33.7534 54.516C31.4529 52.2155 30.1588 49.0964 30.155 45.8429V29.3572C30.155 28.9784 30.0045 28.615 29.7366 28.3471C29.4687 28.0792 29.1053 27.9287 28.7265 27.9287C28.3476 27.9287 27.9842 28.0792 27.7163 28.3471C27.4484 28.615 27.2979 28.9784 27.2979 29.3572V34.9572C26.2825 35.0101 25.2982 35.3251 24.4407 35.8715C24.4407 35.3001 24.3407 34.7429 24.2836 34.2001C24.1836 33.1144 24.0693 32.0429 24.0265 30.9572C23.9299 27.6991 24.5037 24.4559 25.7122 21.4287V21.4287ZM18.0122 62.5572C17.8836 59.0715 19.3265 55.5429 20.6836 52.5572L21.1265 51.5715C22.0773 49.5755 22.9074 47.5242 23.6122 45.4287C24.6421 46.361 25.9668 46.902 27.355 46.9572C27.5556 49.7475 28.5274 52.4271 30.162 54.6974C31.7965 56.9676 34.0296 58.7391 36.6122 59.8144V61.4287H36.3265C33.326 61.4275 30.3595 62.0636 27.6234 63.295C24.8872 64.5264 22.4439 66.3249 20.455 68.5715C18.9325 66.933 18.0634 64.7933 18.0122 62.5572Z" fill="#07122B"/>
<path d="M74.4 81.0139H72.6286V64.3996C72.6274 64.1643 72.568 63.933 72.4559 63.7261C72.3437 63.5192 72.1822 63.3433 71.9857 63.2139C71.7898 63.0835 71.5647 63.0035 71.3304 62.9811C71.0961 62.9587 70.86 62.9945 70.6429 63.0853L67.2714 64.5139C66.9373 64.6711 66.6769 64.9516 66.5451 65.2965C66.4132 65.6415 66.4201 66.0241 66.5642 66.3641C66.7084 66.7042 66.9786 66.9751 67.3182 67.1202C67.6578 67.2654 68.0404 67.2733 68.3857 67.1425L69.8143 66.5567V81.0139H67.4286C67.0497 81.0139 66.6863 81.1644 66.4184 81.4323C66.1505 81.7002 66 82.0636 66 82.4425C66 82.8213 66.1505 83.1847 66.4184 83.4526C66.6863 83.7205 67.0497 83.871 67.4286 83.871H74.4C74.7789 83.871 75.1422 83.7205 75.4101 83.4526C75.6781 83.1847 75.8286 82.8213 75.8286 82.4425C75.8286 82.0636 75.6781 81.7002 75.4101 81.4323C75.1422 81.1644 74.7789 81.0139 74.4 81.0139V81.0139Z" fill="#07122B"/>
</svg>
