<svg width="101" height="100" viewBox="0 0 101 100" fill="none" xmlns="http://www.w3.org/2000/svg">
<path d="M50.4989 35.0005C50.8778 35.0005 51.2411 34.85 51.509 34.5821C51.7769 34.3142 51.9275 33.9508 51.9275 33.5719V26.8719C51.9275 26.4931 51.7769 26.1297 51.509 25.8618C51.2411 25.5939 50.8778 25.4434 50.4989 25.4434C50.12 25.4434 49.7566 25.5939 49.4887 25.8618C49.2208 26.1297 49.0703 26.4931 49.0703 26.8719V33.5719C49.0703 33.9508 49.2208 34.3142 49.4887 34.5821C49.7566 34.85 50.12 35.0005 50.4989 35.0005Z" fill="#07122B"/>
<path d="M10.4169 51.4282H14.3311C14.6932 60.5308 18.4685 69.1635 24.9062 75.6091C31.3438 82.0547 39.9719 85.8407 49.074 86.2139V90.0854C49.074 90.4642 49.2245 90.8276 49.4924 91.0955C49.7603 91.3634 50.1237 91.5139 50.5026 91.5139C50.8814 91.5139 51.2448 91.3634 51.5127 91.0955C51.7806 90.8276 51.9311 90.4642 51.9311 90.0854V86.2139C61.0333 85.8407 69.6614 82.0547 76.099 75.6091C82.5366 69.1635 86.3119 60.5308 86.674 51.4282H90.5883C90.9672 51.4282 91.3305 51.2777 91.5984 51.0098C91.8663 50.7419 92.0169 50.3785 92.0169 49.9996C92.0169 49.6208 91.8663 49.2574 91.5984 48.9895C91.3305 48.7216 90.9672 48.5711 90.5883 48.5711H86.6597C86.28 39.4863 82.4979 30.8764 76.0644 24.4509C69.6309 18.0253 61.0164 14.2539 51.9311 13.8854V9.91392C51.9311 9.53504 51.7806 9.17168 51.5127 8.90377C51.2448 8.63586 50.8814 8.48535 50.5026 8.48535C50.1237 8.48535 49.7603 8.63586 49.4924 8.90377C49.2245 9.17168 49.074 9.53504 49.074 9.91392V13.8854C39.9887 14.2539 31.3742 18.0253 24.9407 24.4509C18.5072 30.8764 14.7252 39.4863 14.3454 48.5711H10.4169C10.038 48.5711 9.67461 48.7216 9.4067 48.9895C9.13879 49.2574 8.98828 49.6208 8.98828 49.9996C8.98828 50.3785 9.13879 50.7419 9.4067 51.0098C9.67461 51.2777 10.038 51.4282 10.4169 51.4282ZM49.074 16.7425V20.8996C49.074 21.2785 49.2245 21.6419 49.4924 21.9098C49.7603 22.1777 50.1237 22.3282 50.5026 22.3282C50.8814 22.3282 51.2448 22.1777 51.5127 21.9098C51.7806 21.6419 51.9311 21.2785 51.9311 20.8996V16.7425C60.2601 17.1054 68.1512 20.574 74.0502 26.4651C79.9492 32.3562 83.4284 40.2426 83.8026 48.5711H79.6026C79.2237 48.5711 78.8603 48.7216 78.5924 48.9895C78.3245 49.2574 78.174 49.6208 78.174 49.9996C78.174 50.3785 78.3245 50.7419 78.5924 51.0098C78.8603 51.2777 79.2237 51.4282 79.6026 51.4282H83.8883C83.5273 59.7852 80.0436 67.7024 74.1262 73.6146C68.2088 79.5267 60.2884 83.0032 51.9311 83.3568V79.0711C51.9311 78.6922 51.7806 78.3288 51.5127 78.0609C51.2448 77.793 50.8814 77.6425 50.5026 77.6425C50.1237 77.6425 49.7603 77.793 49.4924 78.0609C49.2245 78.3288 49.074 78.6922 49.074 79.0711V83.3568C40.7293 82.9858 32.8265 79.5016 26.9241 73.5912C21.0216 67.6809 17.548 59.7734 17.1883 51.4282H21.474C21.8529 51.4282 22.2162 51.2777 22.4841 51.0098C22.7521 50.7419 22.9026 50.3785 22.9026 49.9996C22.9026 49.6208 22.7521 49.2574 22.4841 48.9895C22.2162 48.7216 21.8529 48.5711 21.474 48.5711H17.2026C17.5767 40.2426 21.0559 32.3562 26.9549 26.4651C32.8539 20.574 40.7451 17.1054 49.074 16.7425V16.7425Z" fill="#07122B"/>
<path d="M36.9286 60.2278C36.5497 60.2278 36.1863 60.3783 35.9184 60.6462C35.6505 60.9141 35.5 61.2775 35.5 61.6564V70.1135C35.5 70.4924 35.6505 70.8557 35.9184 71.1237C36.1863 71.3916 36.5497 71.5421 36.9286 71.5421H64.0714C64.4503 71.5421 64.8137 71.3916 65.0816 71.1237C65.3495 70.8557 65.5 70.4924 65.5 70.1135V61.6564C65.5 61.2775 65.3495 60.9141 65.0816 60.6462C64.8137 60.3783 64.4503 60.2278 64.0714 60.2278H62.8857V51.4278C62.8819 48.4509 61.6977 45.5971 59.5928 43.4922C57.4878 41.3872 54.634 40.203 51.6571 40.1992H49.3429C46.3649 40.1992 43.5088 41.3822 41.4031 43.488C39.2973 45.5938 38.1143 48.4498 38.1143 51.4278V60.2992L36.9286 60.2278ZM62.6429 68.6849H38.3571V63.0849H62.6429V68.6849ZM40.9714 51.4278C40.9752 49.2087 41.8584 47.0816 43.4275 45.5125C44.9967 43.9433 47.1238 43.0601 49.3429 43.0564H51.6571C53.8762 43.0601 56.0033 43.9433 57.5725 45.5125C59.1416 47.0816 60.0248 49.2087 60.0286 51.4278V60.2992H40.9714V51.4278Z" fill="#07122B"/>
<path d="M51.3727 45.2578C51.0082 45.2572 50.6573 45.3958 50.3917 45.6455C50.1261 45.8951 49.966 46.2368 49.9441 46.6007C49.9325 46.7883 49.9581 46.9765 50.0194 47.1542C50.0806 47.332 50.1764 47.496 50.3011 47.6366C50.4259 47.7773 50.5772 47.892 50.7464 47.9741C50.9155 48.0562 51.0993 48.104 51.287 48.115C52.1648 48.1702 52.9867 48.5649 53.5787 49.2155C54.1706 49.8661 54.4861 50.7215 54.4584 51.6007C54.4803 51.9645 54.6404 52.3062 54.906 52.5559C55.1715 52.8055 55.5225 52.9442 55.887 52.9435H55.987C56.3533 52.9038 56.6901 52.7241 56.927 52.4419C57.1639 52.1597 57.2827 51.7969 57.2584 51.4292C57.2429 49.846 56.6263 48.3277 55.5336 47.1819C54.4408 46.0361 52.9535 45.3483 51.3727 45.2578V45.2578Z" fill="#07122B"/>
<path d="M35.031 40.515C35.1659 40.6604 35.3295 40.7761 35.5115 40.8548C35.6935 40.9335 35.8899 40.9734 36.0882 40.9721C36.4459 40.9681 36.7905 40.8364 37.0596 40.6007C37.1993 40.4736 37.3124 40.3201 37.3923 40.1491C37.4723 39.9781 37.5176 39.7929 37.5256 39.6043C37.5335 39.4156 37.504 39.2273 37.4388 39.0501C37.3735 38.873 37.2738 38.7105 37.1453 38.5721L32.7167 33.7435C32.5873 33.6056 32.432 33.4946 32.2596 33.4167C32.0872 33.3389 31.9012 33.2957 31.7122 33.2898C31.5232 33.2838 31.3348 33.3151 31.1579 33.382C30.981 33.4488 30.8189 33.5498 30.681 33.6792C30.5431 33.8087 30.4321 33.964 30.3542 34.1364C30.2764 34.3088 30.2332 34.4948 30.2273 34.6838C30.2213 34.8728 30.2526 35.0612 30.3195 35.2381C30.3863 35.415 30.4873 35.5771 30.6167 35.715L35.031 40.515Z" fill="#07122B"/>
<path d="M64.786 40.9709C64.9843 40.9723 65.1807 40.9323 65.3627 40.8536C65.5447 40.7749 65.7083 40.6592 65.8431 40.5138L70.3289 35.7138C70.4564 35.5749 70.5554 35.4123 70.6201 35.2353C70.6849 35.0582 70.7141 34.8701 70.7061 34.6817C70.6982 34.4934 70.6532 34.3084 70.5737 34.1374C70.4943 33.9664 70.382 33.8128 70.2431 33.6852C70.1043 33.5576 69.9417 33.4586 69.7646 33.3939C69.5876 33.3292 69.3995 33.3 69.2111 33.3079C69.0227 33.3159 68.8378 33.3609 68.6668 33.4403C68.4958 33.5197 68.3421 33.6321 68.2146 33.7709L63.8003 38.5709C63.6144 38.7708 63.4897 39.0198 63.441 39.2884C63.3922 39.5569 63.4214 39.8339 63.5251 40.0864C63.6288 40.3389 63.8027 40.5564 64.0261 40.7131C64.2496 40.8699 64.5133 40.9593 64.786 40.9709Z" fill="#07122B"/>
</svg>
