<svg xmlns="http://www.w3.org/2000/svg" viewBox="0 0 100 100"><defs><style>.cls-1,.cls-4{fill:#ffd44d;}.cls-1,.cls-2,.cls-3,.cls-4,.cls-5,.cls-6{stroke:#231f20;}.cls-1,.cls-2,.cls-3,.cls-5{stroke-linejoin:bevel;}.cls-1,.cls-2,.cls-3,.cls-4,.cls-5{stroke-width:1.5px;}.cls-2{fill:#0099f5;}.cls-3{fill:#f0457d;}.cls-4,.cls-6{stroke-miterlimit:10;}.cls-5{fill:#545454;}.cls-6{fill:#231f20;}</style></defs><g id="Layer_2" data-name="Layer 2"><path class="cls-1" d="M83.22,27v2.09H14V27a5.24,5.24,0,0,1,5.24-5.23H78A5.23,5.23,0,0,1,83.22,27Z"/><rect class="cls-2" x="13.98" y="32.05" width="69.24" height="46.72"/><circle class="cls-3" cx="77.24" cy="25.64" r="13.26"/><path class="cls-4" d="M57.17,58.51a17.76,17.76,0,0,0-2.48,2.17c-1.37,1.45-2.42,3.07-2.42,4.27v6.4H45V65c0-1.87-2.57-4.78-4.9-6.44a2.16,2.16,0,0,1-.44-3.1l9-11.38,9,11.38A2.16,2.16,0,0,1,57.17,58.51Z"/><line class="cls-4" x1="48.61" y1="44.03" x2="48.61" y2="56.36"/><circle class="cls-5" cx="48.61" cy="56.36" r="2.49"/><circle class="cls-4" cx="64.41" cy="44.03" r="2.77"/><line class="cls-4" x1="35.49" y1="44.03" x2="61.65" y2="44.03"/><circle class="cls-4" cx="32.72" cy="44.03" r="2.77"/><rect class="cls-5" x="44.31" y="67.49" width="8.69" height="11.28"/><path class="cls-5" d="M72,25.3v3.64a1.75,1.75,0,0,0,1.75,1.75h7.06a1.75,1.75,0,0,0,1.75-1.75V25.3Z"/><line class="cls-5" x1="84.84" y1="24.79" x2="84.84" y2="28.28"/><polygon class="cls-5" points="77.24 27.88 67.06 24.79 77.24 21.71 87.41 24.79 77.24 27.88"/><polygon class="cls-5" points="84.84 28.05 84.24 28.26 84.24 30.06 84.84 30.06 85.44 30.06 85.44 28.26 84.84 28.05"/><line class="cls-5" x1="17.74" y1="25.64" x2="20.4" y2="25.64"/><line class="cls-5" x1="22.26" y1="25.64" x2="24.92" y2="25.64"/><line class="cls-5" x1="26.78" y1="25.64" x2="29.44" y2="25.64"/><path class="cls-6" d="M54.69,60.68c-1.37,1.45-2.42,3.07-2.42,4.27v1.91H50S51.24,60.68,54.69,60.68Z"/></g></svg>