<svg xmlns="http://www.w3.org/2000/svg" viewBox="0 0 100 100"><defs><style>.cls-1{fill:#231f20;}.cls-1,.cls-2,.cls-3,.cls-4{stroke:#231f20;stroke-linejoin:bevel;}.cls-1,.cls-2,.cls-3,.cls-4,.cls-5{stroke-width:1.5px;}.cls-2{fill:#f0457d;}.cls-3{fill:#0099f5;}.cls-4{fill:none;}.cls-5{fill:#f8d366;stroke:#221f20;stroke-miterlimit:10;}</style></defs><g id="Layer_2" data-name="Layer 2"><rect class="cls-1" x="22.22" y="56.21" width="12.51" height="28.62"/><rect class="cls-1" x="37.59" y="42.57" width="12.51" height="42.26"/><rect class="cls-1" x="52.75" y="32.09" width="12.51" height="52.74"/><polyline class="cls-2" points="19.58 59.66 19.58 56.21 32.09 56.21 32.09 84.83 19.58 84.83 19.58 68.77"/><rect class="cls-2" x="34.95" y="42.57" width="12.51" height="42.26"/><polyline class="cls-2" points="50.1 35.99 50.1 84.83 62.62 84.83 62.62 32.09 50.1 32.09"/><rect class="cls-3" x="34.95" y="53.44" width="12.51" height="31.39"/><rect class="cls-3" x="50.1" y="49.34" width="12.51" height="35.49"/><rect class="cls-1" x="67.91" y="46.71" width="12.51" height="38.12"/><polyline class="cls-2" points="65.26 49.52 65.26 84.83 77.78 84.83 77.78 46.7 65.26 46.7"/><rect class="cls-3" x="65.26" y="59.18" width="12.51" height="25.65"/><rect class="cls-3" x="19.58" y="76.25" width="12.51" height="8.58"/><polyline class="cls-4" points="25.84 43.49 41.94 26.5 59.01 18.01"/><circle class="cls-5" cx="25.84" cy="43.49" r="2.84"/><circle class="cls-5" cx="41.94" cy="26.07" r="2.84"/><line class="cls-4" x1="59.01" y1="18.01" x2="74.56" y2="31.75"/><circle class="cls-5" cx="74.56" cy="31.75" r="2.84"/><circle class="cls-5" cx="59.01" cy="18.01" r="2.84"/></g></svg>