<svg xmlns="http://www.w3.org/2000/svg" viewBox="0 0 100 100"><defs><style>.cls-1,.cls-4{fill:#f0457d;}.cls-2{fill:none;}.cls-2,.cls-3,.cls-4,.cls-5{stroke:#231f20;stroke-width:1.5px;}.cls-2,.cls-3,.cls-5{stroke-miterlimit:10;}.cls-3{fill:#0099f5;}.cls-4{stroke-linejoin:bevel;}.cls-5{fill:#ffd44d;}</style></defs><g id="Layer_2" data-name="Layer 2"><path class="cls-1" d="M63.26,57.59v5.26a9.79,9.79,0,0,1-9.79,9.79H25.67a9.8,9.8,0,0,1-9.78-9.79V57.59a13,13,0,0,1,13-13h.92a10.82,10.82,0,0,0,1.36,1.79,10.61,10.61,0,0,0,16-.61A9.72,9.72,0,0,0,48,44.61h2.28a12.64,12.64,0,0,1,2.29.19A13,13,0,0,1,63.26,57.59Z"/><path class="cls-1" d="M21,64.5h4.41a4,4,0,0,1,4,4v4.18H25.67L23.48,69"/><path class="cls-1" d="M57.9,64.5H53.5a4,4,0,0,0-4,4v4.18h3.72L55.46,69"/><path class="cls-2" d="M25.67,72.63a9.78,9.78,0,0,1-9.78-9.78V57.59a13,13,0,0,1,13-13h.92a11.35,11.35,0,0,0,1.35,1.79,10.25,10.25,0,0,0,1.09,1"/><path class="cls-2" d="M46.39,46.63a9.69,9.69,0,0,0,.75-.83A10.68,10.68,0,0,0,48,44.61h2.27a12.68,12.68,0,0,1,2.3.19A13,13,0,0,1,63.26,57.59v5.26a9.79,9.79,0,0,1-9.79,9.78v-.34"/><circle class="cls-1" cx="39.57" cy="30.78" r="10.92"/><circle class="cls-2" cx="39.57" cy="30.78" r="10.92"/><path class="cls-2" d="M21,64.5h4.41a4,4,0,0,1,4,4v4.18H25.67"/><path class="cls-2" d="M57.9,64.5H53.5a4,4,0,0,0-4,4v4.18h3.72"/><line class="cls-2" x1="29.4" y1="72.64" x2="49.54" y2="72.64"/><line class="cls-2" x1="25.44" y1="64.5" x2="25.44" y2="54.12"/><rect class="cls-3" x="10.9" y="72.63" width="78.2" height="7.5"/><polyline class="cls-4" points="68.05 69.97 68.05 57.56 80.59 57.56 80.59 72.64 68.05 72.64"/><path class="cls-2" d="M80.59,60.37h2.62a3.14,3.14,0,0,1,3.14,3.14v1.33A3.14,3.14,0,0,1,83.21,68H80.59a0,0,0,0,1,0,0V60.37A0,0,0,0,1,80.59,60.37Z"/><polyline class="cls-5" points="23.38 44.34 59.48 44.34 59.48 70.34 19.66 70.34 19.66 44.34"/><circle class="cls-2" cx="39.57" cy="58.08" r="3.03"/><rect class="cls-5" x="16.77" y="70.34" width="45.6" height="2.29"/><line class="cls-2" x1="70.6" y1="62.46" x2="80.59" y2="62.46"/></g></svg>