<svg xmlns="http://www.w3.org/2000/svg" viewBox="0 0 100 100"><defs><style>.cls-1{fill:#231f20;}.cls-1,.cls-2,.cls-3,.cls-4,.cls-5,.cls-6{stroke:#231f20;stroke-miterlimit:10;stroke-width:1.5px;}.cls-2{fill:#0099f5;}.cls-3{fill:#adadad;}.cls-4{fill:#ffd44d;}.cls-5{fill:#fff;}.cls-6{fill:none;}</style></defs><g id="Layer_2" data-name="Layer 2"><g id="Layer_2-2" data-name="Layer 2"><rect class="cls-1" x="13.51" y="29.52" width="69.83" height="41.43" rx="6.24"/><path class="cls-2" d="M34.65,27.4H77.1a6.24,6.24,0,0,1,6.24,6.24V50.1a6.24,6.24,0,0,1-6.24,6.24H19.75a6.25,6.25,0,0,1-6.24-6.24V33.64a6.24,6.24,0,0,1,6.24-6.24h7.3"/><rect class="cls-3" x="34.65" y="63.12" width="27.55" height="17.69" rx="1.69"/><rect class="cls-3" x="34.65" y="16.11" width="27.55" height="21.92" rx="1.69"/><rect class="cls-1" x="18.32" y="32.6" width="11.88" height="5.71" rx="2.29"/><rect class="cls-4" x="18.32" y="30.61" width="11.88" height="5.71" rx="2.29"/><rect class="cls-5" x="34.65" y="63.12" width="23.71" height="17.69" rx="1.69"/><path class="cls-5" d="M34.65,27.07V17.8a1.68,1.68,0,0,1,1.69-1.69H56.67a1.69,1.69,0,0,1,1.69,1.69V36.35A1.69,1.69,0,0,1,56.67,38H36.34a1.68,1.68,0,0,1-1.69-1.68V27.07"/><line class="cls-6" x1="40.02" y1="67.26" x2="58.36" y2="67.26"/><line class="cls-6" x1="40.02" y1="71.97" x2="52.67" y2="71.97"/></g></g></svg>