<svg xmlns="http://www.w3.org/2000/svg" viewBox="0 0 100 100"><defs><style>.cls-1{fill:#231f20;}.cls-1,.cls-2,.cls-3,.cls-4{stroke:#231f20;stroke-width:1.5px;}.cls-1,.cls-3,.cls-4{stroke-linejoin:bevel;}.cls-2{fill:#f0457d;stroke-miterlimit:10;}.cls-3{fill:#ffd44d;}.cls-4{fill:#0099f5;}</style></defs><g id="Layer_2" data-name="Layer 2"><path class="cls-1" d="M22,27.44h51.7a2.14,2.14,0,0,1,2.14,2.14V80.21a0,0,0,0,1,0,0h-56a0,0,0,0,1,0,0V29.58A2.14,2.14,0,0,1,22,27.44Z" transform="translate(101.7 5.96) rotate(90)"/><path class="cls-2" d="M19.73,27.46h0a1.63,1.63,0,0,1,1.63-1.63H70.87a1.63,1.63,0,0,1,1.63,1.63V80.19a1.63,1.63,0,0,1-1.63,1.63H21.36a1.63,1.63,0,0,1-1.63-1.63V32.87"/><line class="cls-2" x1="23.83" y1="36.15" x2="63.63" y2="36.15"/><line class="cls-2" x1="23.83" y1="40.01" x2="63.63" y2="40.01"/><rect class="cls-3" x="55.87" y="45.62" width="8.89" height="11.5"/><rect class="cls-3" x="24.4" y="45.62" width="25.33" height="11.5"/><rect class="cls-4" x="24.4" y="61.51" width="40.36" height="11.5"/><line class="cls-2" x1="19.73" y1="29.12" x2="72.56" y2="29.12"/><polygon class="cls-3" points="79.05 42.02 79.05 72.77 74.26 67.98 69.46 72.77 69.46 42.02 79.05 42.02"/><path class="cls-1" d="M79.05,42v10c-1.6,0-3.9-2.52-4.51-4.14s-3.39,0-3.39,0L69.89,42Z"/><path class="cls-3" d="M87.71,34.44l-.53-.21a13,13,0,0,0,.08-1.41,14.08,14.08,0,0,0-.13-1.73l.49-.21a3.48,3.48,0,0,0,1.83-4.57h0a3.49,3.49,0,0,0-4.57-1.84l-.49.21a13.32,13.32,0,0,0-2.25-2.19l.22-.56a3.41,3.41,0,0,0-1.89-4.43h0a3.58,3.58,0,0,0-4.64,2l-.16.41a13.18,13.18,0,0,0-1.41-.08,14.09,14.09,0,0,0-1.73.12l-.23-.53a3.44,3.44,0,0,0-4.52-1.8h0l0,0a3.45,3.45,0,0,0-1.8,4.52l.22.52a13.32,13.32,0,0,0-2.19,2.25l-.56-.22a3.41,3.41,0,0,0-4.43,1.89h0a3.57,3.57,0,0,0,2,4.64l.4.16a13.37,13.37,0,0,0-.08,1.42,14.07,14.07,0,0,0,.13,1.72l-.48.2a3.52,3.52,0,0,0-1.84,4.59h0a3.51,3.51,0,0,0,4.59,1.82l.47-.2a13.32,13.32,0,0,0,2.25,2.19l-.22.54a3.44,3.44,0,0,0,1.92,4.46l.09,0a3.44,3.44,0,0,0,4.47-1.91l.21-.53a13.37,13.37,0,0,0,1.42.08A12.33,12.33,0,0,0,76,45.69l.2.48A3.5,3.5,0,0,0,80.76,48h0l0,0a3.44,3.44,0,0,0,1.8-4.51L82.39,43a13,13,0,0,0,2.19-2.25l.53.22A3.45,3.45,0,0,0,89.59,39l0-.09A3.46,3.46,0,0,0,87.71,34.44Z"/><line class="cls-3" x1="74.26" y1="67.98" x2="74.26" y2="51.63"/><circle class="cls-2" cx="74.27" cy="32.84" r="8.4"/></g></svg>