<svg width="20" height="20" viewBox="0 0 20 20" fill="none" xmlns="http://www.w3.org/2000/svg">
<path d="M2.73911 18.2891C2.61249 18.2847 2.48979 18.2441 2.38565 18.1719C2.28152 18.0998 2.20035 17.9992 2.15185 17.8821C2.10334 17.7651 2.08955 17.6365 2.11212 17.5119C2.13469 17.3872 2.19266 17.2717 2.27911 17.1791L17.3591 2.08906C17.4823 1.96933 17.6473 1.90234 17.8191 1.90234C17.9909 1.90234 18.1559 1.96933 18.2791 2.08906C18.3408 2.14874 18.3899 2.22021 18.4234 2.29924C18.4569 2.37827 18.4741 2.46322 18.4741 2.54906C18.4741 2.63489 18.4569 2.71985 18.4234 2.79888C18.3899 2.8779 18.3408 2.94938 18.2791 3.00906L3.19911 18.0891C3.13951 18.1512 3.06815 18.2009 2.98918 18.2352C2.91022 18.2695 2.82521 18.2879 2.73911 18.2891V18.2891Z" fill="#FC3030"/>
<path d="M17.8204 18.2892C17.6467 18.2857 17.4814 18.2138 17.3604 18.0892L2.28038 2.99921C2.15838 2.87721 2.08984 2.71174 2.08984 2.53921C2.08984 2.36668 2.15838 2.20121 2.28038 2.07921C2.40238 1.95721 2.56785 1.88867 2.74038 1.88867C2.91292 1.88867 3.07838 1.95721 3.20038 2.07921L18.2804 17.1792C18.3668 17.2718 18.4248 17.3874 18.4474 17.512C18.4699 17.6367 18.4562 17.7652 18.4076 17.8823C18.3591 17.9993 18.278 18.0999 18.1738 18.1721C18.0697 18.2442 17.947 18.2849 17.8204 18.2892Z" fill="#FC3030"/>
</svg>
