<?xml version="1.0" standalone="no"?>
<!DOCTYPE svg PUBLIC "-//W3C//DTD SVG 20010904//EN"
 "http://www.w3.org/TR/2001/REC-SVG-20010904/DTD/svg10.dtd">
<svg version="1.0" xmlns="http://www.w3.org/2000/svg"
 width="450.000000pt" height="450.000000pt" viewBox="0 0 450.000000 450.000000"
 preserveAspectRatio="xMidYMid meet">

<g transform="translate(0.000000,450.000000) scale(0.100000,-0.100000)"
fill="#000000" stroke="none">
<path d="M1875 3386 c-41 -18 -83 -69 -90 -109 -3 -18 -5 -495 -3 -1062 l3
-1030 23 -33 c46 -64 20 -62 685 -62 l604 0 34 23 c19 12 41 37 50 54 l16 32
35 -30 c57 -46 131 -79 179 -79 87 0 225 93 270 182 45 88 93 328 87 438 -3
60 -5 66 -36 87 -43 28 -168 69 -258 84 -68 11 -139 3 -251 -27 l-23 -6 -2
725 c-3 715 -3 726 -24 753 -11 15 -33 37 -48 48 -27 21 -39 21 -624 23 -481
2 -603 0 -627 -11z m503 -69 c2 -10 -3 -17 -12 -17 -18 0 -29 16 -21 31 9 14
29 6 33 -14z m277 3 c4 -6 -38 -10 -119 -10 -77 0 -126 4 -126 10 0 6 46 10
119 10 69 0 122 -4 126 -10z m127 -67 c-160 -2 -424 -2 -585 0 -160 1 -29 2
293 2 322 0 453 -1 292 -2z m-882 -7 c0 -2 -7 -7 -16 -10 -8 -3 -12 -2 -9 4 6
10 25 14 25 6z m1225 -21 c14 -13 25 -30 25 -37 -1 -7 -7 -2 -14 11 -7 13 -24
30 -37 37 -13 7 -18 13 -11 14 7 0 24 -11 37 -25z m-1282 -30 c-3 -9 -8 -14
-10 -11 -3 3 -2 9 2 15 9 16 15 13 8 -4z m-11 -1287 c2 -394 0 -711 -4 -705
-4 7 -7 453 -6 992 2 539 4 856 5 705 2 -151 4 -597 5 -992z m1325 285 c-1
-181 -2 -33 -2 327 0 360 1 508 2 328 2 -181 2 -475 0 -655z m-649 900 c-16
-2 -40 -2 -55 0 -16 2 -3 4 27 4 30 0 43 -2 28 -4z m52 -14 c-12 -9 -11 -10 8
-6 14 3 20 1 15 -6 -4 -6 0 -8 10 -4 10 4 16 2 14 -5 -1 -6 4 -13 12 -16 9 -3
11 0 6 8 -5 9 -4 11 4 6 6 -4 9 -11 7 -15 -7 -10 49 -64 61 -59 4 1 8 -4 8
-12 1 -8 9 -41 19 -74 65 -209 -159 -395 -355 -295 -22 11 -43 17 -48 15 -4
-3 -21 9 -37 26 -16 17 -23 28 -15 23 9 -5 12 -3 9 6 -3 8 -10 14 -16 14 -5 0
-14 4 -19 9 -5 6 -2 6 6 1 11 -6 13 -4 6 11 -25 60 -34 117 -25 166 6 27 7 55
3 61 -4 6 -1 7 7 2 10 -6 12 -4 7 8 -4 10 -2 16 6 14 7 -1 12 6 12 15 0 20 55
79 66 72 5 -3 23 3 41 12 18 10 67 21 108 24 41 4 80 8 85 8 6 1 3 -3 -5 -9z
m-343 -221 c-3 -7 -5 -2 -5 12 0 14 2 19 5 13 2 -7 2 -19 0 -25z m0 -90 c-3
-7 -5 -2 -5 12 0 14 2 19 5 13 2 -7 2 -19 0 -25z m192 -204 c14 -12 -19 -1
-35 12 -18 14 -18 14 6 3 14 -6 27 -13 29 -15z m-466 -122 c-10 -10 -20 -17
-22 -16 -6 5 20 34 30 34 5 0 1 -8 -8 -18z m1088 1 c13 -17 13 -17 -6 -3 -11
8 -22 16 -24 17 -2 2 0 3 6 3 6 0 17 -8 24 -17z m-596 -108 c0 -19 -8 -20
-209 -23 -214 -2 -242 2 -214 35 8 10 57 13 217 11 198 -3 206 -4 206 -23z
m300 0 c0 -19 -8 -20 -119 -23 -121 -3 -144 3 -133 33 6 13 24 15 129 13 115
-3 123 -4 123 -23z m-795 -110 c14 -19 14 -19 -2 -6 -10 7 -18 18 -18 24 0 6
1 8 3 6 1 -2 9 -13 17 -24z m802 -72 c-144 -2 -380 -2 -525 0 -144 1 -26 2
263 2 289 0 407 -1 262 -2z m-804 -23 c-7 -10 -14 -17 -17 -15 -4 4 18 35 25
35 2 0 -1 -9 -8 -20z m1097 0 c10 -11 16 -20 13 -20 -3 0 -13 9 -23 20 -10 11
-16 20 -13 20 3 0 13 -9 23 -20z m-838 -71 c-5 -17 -3 -18 9 -8 19 15 31 4 15
-15 -9 -11 -8 -15 4 -20 9 -3 13 -11 10 -17 -5 -8 -10 -8 -18 0 -15 15 -25 14
-23 -3 0 -8 -3 -15 -9 -15 -5 0 -9 7 -7 15 3 13 -1 13 -17 4 -17 -9 -21 -8
-21 5 0 8 8 15 17 15 15 0 14 2 -3 14 -10 8 -16 18 -12 22 4 4 15 1 25 -7 15
-12 16 -12 11 3 -7 17 -1 28 15 28 5 0 7 -9 4 -21z m145 -4 c-3 -16 -2 -17 12
-6 9 8 20 11 24 7 4 -4 -2 -14 -12 -22 -17 -12 -18 -14 -3 -14 9 0 17 -7 17
-15 0 -13 -4 -14 -21 -5 -16 9 -20 9 -17 -4 2 -8 -1 -15 -7 -15 -5 0 -9 7 -9
15 2 16 -12 19 -21 4 -4 -6 -11 -7 -17 -4 -7 5 -5 12 7 20 16 12 17 14 2 20
-9 3 -14 10 -11 16 3 5 12 7 20 4 8 -3 14 1 14 10 0 9 6 14 13 11 6 -2 10 -12
9 -22z m148 4 c0 -18 2 -19 15 -9 9 7 19 10 23 6 4 -4 -2 -14 -12 -22 -17 -12
-18 -14 -3 -14 17 0 22 -11 10 -23 -3 -4 -12 -2 -20 4 -10 9 -13 7 -13 -10 0
-11 -4 -21 -10 -21 -5 0 -10 10 -10 21 0 17 -3 19 -14 10 -9 -8 -16 -8 -20 -2
-4 5 2 14 11 20 17 9 17 10 1 16 -25 10 -23 28 2 20 14 -5 20 -2 20 9 0 9 5
16 10 16 6 0 10 -10 10 -21z m150 5 c0 -11 6 -14 20 -9 25 8 27 -10 3 -20 -17
-6 -17 -7 0 -16 9 -6 15 -15 11 -20 -4 -6 -11 -6 -20 2 -11 9 -14 7 -14 -10 0
-11 -4 -21 -10 -21 -5 0 -10 10 -10 21 0 17 -3 19 -14 10 -10 -8 -16 -9 -21
-1 -3 5 1 13 10 16 14 6 14 8 -2 19 -10 8 -15 17 -11 21 4 4 14 1 23 -6 13
-10 15 -9 15 9 0 11 5 21 10 21 6 0 10 -7 10 -16z m150 2 c0 -9 7 -12 20 -9
25 7 27 -12 3 -22 -17 -6 -17 -7 0 -16 9 -6 15 -15 11 -20 -4 -6 -11 -6 -20 2
-11 9 -14 7 -14 -10 0 -11 -4 -21 -10 -21 -5 0 -10 10 -10 22 0 17 -3 19 -12
10 -16 -16 -28 -15 -28 3 0 8 8 15 17 15 15 0 14 2 -3 14 -10 8 -16 18 -12 22
4 4 14 1 23 -6 13 -10 15 -9 15 9 0 11 5 21 10 21 6 0 10 -6 10 -14z m11 -236
c17 -10 19 -22 19 -120 0 -85 -3 -112 -16 -124 -13 -14 -56 -16 -319 -16 -291
0 -305 1 -315 19 -5 11 -10 65 -10 120 0 77 4 103 16 115 13 14 56 16 310 16
185 0 303 -4 315 -10z m622 3 c-7 -2 -19 -2 -25 0 -7 3 -2 5 12 5 14 0 19 -2
13 -5z m-60 -10 c-7 -2 -21 -2 -30 0 -10 3 -4 5 12 5 17 0 24 -2 18 -5z m130
0 c-7 -2 -19 -2 -25 0 -7 3 -2 5 12 5 14 0 19 -2 13 -5z m-186 -9 c-3 -3 -12
-4 -19 -1 -8 3 -5 6 6 6 11 1 17 -2 13 -5z m258 -4 c25 -11 -1 -11 -35 0 -20
6 -21 8 -5 8 11 0 29 -3 40 -8z m-355 -25 c-46 -18 -64 -17 -25 0 17 8 37 14
45 14 8 0 -1 -7 -20 -14z m480 -20 c17 -9 30 -18 30 -21 0 -4 -59 23 -69 32
-10 9 13 3 39 -11z m-540 1 c0 -2 -7 -7 -16 -10 -8 -3 -12 -2 -9 4 6 10 25 14
25 6z m-43 -83 c-2 -16 -4 -5 -4 22 0 28 2 40 4 28 2 -13 2 -35 0 -50z m610
-55 c-2 -13 -4 -3 -4 22 0 25 2 35 4 23 2 -13 2 -33 0 -45z m-600 -25 c-3 -10
-5 -2 -5 17 0 19 2 27 5 18 2 -10 2 -26 0 -35z m286 10 c-7 -2 -19 -2 -25 0
-7 3 -2 5 12 5 14 0 19 -2 13 -5z m44 1 c-3 -3 -12 -4 -19 -1 -8 3 -5 6 6 6
11 1 17 -2 13 -5z m63 -39 c13 -14 21 -25 18 -25 -2 0 -15 11 -28 25 -13 14
-21 25 -18 25 2 0 15 -11 28 -25z m197 -12 c-3 -10 -5 -4 -5 12 0 17 2 24 5
18 2 -7 2 -21 0 -30z m-541 -201 c-5 -5 -46 171 -45 194 0 11 11 -28 25 -85
13 -58 22 -106 20 -109z m324 170 c0 -4 -24 -31 -53 -60 l-53 -52 -24 25 c-27
29 -19 46 12 26 19 -12 25 -9 62 28 39 40 56 49 56 33z m207 -24 c-3 -7 -5 -2
-5 12 0 14 2 19 5 13 2 -7 2 -19 0 -25z m-410 0 c-3 -8 -6 -5 -6 6 -1 11 2 17
5 13 3 -3 4 -12 1 -19z m400 -50 c-3 -7 -5 -2 -5 12 0 14 2 19 5 13 2 -7 2
-19 0 -25z m-400 0 c-3 -8 -6 -5 -6 6 -1 11 2 17 5 13 3 -3 4 -12 1 -19z m43
-63 l35 -40 -37 34 c-21 19 -38 39 -38 45 0 5 1 7 3 5 1 -2 18 -22 37 -44z
m347 23 c-3 -8 -6 -5 -6 6 -1 11 2 17 5 13 3 -3 4 -12 1 -19z m-27 -90 c-12
-34 -35 -68 -62 -93 l-42 -40 41 46 c26 29 48 68 59 104 10 31 20 53 22 47 1
-5 -6 -34 -18 -64z m-416 -85 c4 -7 5 -13 3 -13 -6 0 -57 75 -57 84 0 8 29
-31 54 -71z m-76 -24 c-3 -8 -7 -3 -11 10 -4 17 -3 21 5 13 5 -5 8 -16 6 -23z
m117 -9 c10 -11 16 -20 13 -20 -3 0 -13 9 -23 20 -10 11 -16 20 -13 20 3 0 13
-9 23 -20z m-150 -48 l-28 -27 24 31 c13 17 26 30 28 27 3 -2 -8 -16 -24 -31z
m285 -13 l45 -6 -38 -2 c-33 -1 -117 31 -117 44 0 3 15 -2 33 -12 17 -9 52
-20 77 -24z m-1510 -8 c17 -6 19 -10 8 -10 -9 -1 -27 9 -40 22 -13 12 -17 17
-8 10 8 -7 27 -16 40 -22z m1596 24 c-11 -8 -25 -15 -30 -15 -6 1 0 7 14 15
32 19 40 18 16 0z m-409 -31 c-3 -3 -12 -4 -19 -1 -8 3 -5 6 6 6 11 1 17 -2
13 -5z"/>
<path d="M2294 3008 l-29 -33 33 29 c30 28 37 36 29 36 -2 0 -16 -15 -33 -32z"/>
<path d="M2437 2962 c-32 -35 -16 -95 28 -106 68 -17 110 77 51 116 -20 14
-63 8 -79 -10z"/>
<path d="M2425 2816 c-39 -17 -72 -54 -80 -88 l-7 -28 145 0 146 0 -10 29
c-13 38 -45 70 -85 87 -41 17 -70 17 -109 0z"/>
<path d="M2295 2640 c10 -11 20 -20 23 -20 3 0 -3 9 -13 20 -10 11 -20 20 -23
20 -3 0 3 -9 13 -20z"/>
<path d="M805 2900 c-3 -5 -19 -10 -36 -10 -19 0 -41 -11 -65 -34 l-37 -35 14
-46 c15 -50 55 -93 72 -76 6 6 3 18 -7 32 -23 33 -20 42 10 35 20 -5 30 -2 41
14 9 12 25 20 43 20 19 0 35 9 49 26 27 35 26 43 -6 54 -16 6 -36 15 -45 20
-22 12 -25 12 -33 0z"/>
<path d="M646 2644 c-101 -32 -121 -60 -159 -234 -42 -186 -51 -273 -49 -470
2 -209 14 -268 64 -325 17 -20 28 -39 24 -43 -4 -3 -24 -5 -44 -3 -20 1 -35 1
-32 -2 10 -10 97 -15 310 -18 l215 -3 -214 -6 -214 -5 -97 -320 c-53 -176
-100 -330 -104 -342 -6 -18 -4 -23 11 -23 15 0 34 53 113 318 l95 317 204 3
c191 2 203 1 196 -15 -15 -39 -97 -302 -115 -370 -10 -39 -26 -83 -36 -98 -16
-25 -16 -27 2 -39 10 -8 53 -39 94 -69 67 -50 76 -54 87 -40 11 14 8 24 -12
59 -30 51 -32 69 -7 59 55 -21 70 -18 94 19 13 20 25 36 28 36 3 0 16 -39 29
-86 20 -74 41 -108 56 -92 2 2 -11 52 -29 112 l-33 109 66 138 c36 75 67 134
68 131 1 -4 14 -83 28 -175 29 -190 37 -217 65 -224 15 -4 20 -15 22 -50 l3
-46 115 2 c63 1 117 4 119 7 12 12 -19 40 -60 55 -43 16 -66 49 -34 49 25 0
35 44 35 158 0 250 -33 530 -71 610 -38 78 -180 161 -404 238 -60 20 -111 38
-111 38 -1 1 -5 20 -9 42 l-6 42 68 23 c51 17 91 23 158 24 l90 0 15 47 c9 29
29 60 52 80 53 49 148 166 148 184 0 20 -41 114 -50 114 -3 0 -60 -36 -125
-81 l-119 -81 -105 108 c-72 72 -122 115 -156 130 -60 28 -113 32 -111 8 0 -9
-7 -21 -16 -27 -14 -9 -23 -6 -46 16 -32 31 -38 31 -106 11z m510 -372 c-3 -5
14 -8 37 -8 35 1 42 -2 45 -20 5 -36 -29 -65 -81 -71 l-47 -6 0 38 c0 22 7 46
17 57 16 18 39 26 29 10z m-56 -712 c0 -18 -6 -20 -62 -18 l-63 2 58 3 c41 3
57 8 57 18 0 8 2 15 5 15 3 0 5 -9 5 -20z"/>
<path d="M3824 2448 l-19 -23 23 19 c21 18 27 26 19 26 -2 0 -12 -10 -23 -22z"/>
<path d="M339 2297 c0 -1 -3 -31 -5 -67 -3 -46 -2 -61 5 -50 8 11 11 6 11 -22
0 -20 -5 -40 -12 -44 -8 -5 -6 -11 6 -20 14 -10 17 -24 14 -68 -1 -31 1 -56 5
-56 5 0 7 -27 5 -60 -1 -33 1 -60 5 -60 4 0 8 -28 9 -62 2 -185 9 -228 39
-228 23 0 25 18 4 26 -15 6 -17 63 -3 74 4 3 0 19 -8 35 -12 24 -14 55 -10
163 6 144 0 223 -16 200 -7 -9 -8 -1 -4 24 2 21 0 40 -5 43 -5 4 -9 14 -8 23
0 14 2 13 9 -3 12 -28 12 -5 -1 75 -7 40 -17 71 -25 74 -8 3 -14 4 -15 3z m28
-89 c-3 -8 -6 -5 -6 6 -1 11 2 17 5 13 3 -3 4 -12 1 -19z m30 -235 c-3 -10 -5
-4 -5 12 0 17 2 24 5 18 2 -7 2 -21 0 -30z"/>
</g>
</svg>
