<svg width="100" height="100" viewBox="0 0 100 100" fill="none" xmlns="http://www.w3.org/2000/svg">
<path d="M28.4438 67.1426C28.5423 67.9561 28.8421 68.7322 29.316 69.4007C29.7899 70.0692 30.4231 70.6089 31.1581 70.9711C32.0438 73.0854 33.2581 75.3711 34.401 77.4997C35.4271 79.1972 36.2836 80.9915 36.9581 82.8569V87.1426C36.9581 87.5214 37.1086 87.8848 37.3765 88.1527C37.6444 88.4206 38.0078 88.5711 38.3867 88.5711C38.7656 88.5711 39.1289 88.4206 39.3968 88.1527C39.6647 87.8848 39.8153 87.5214 39.8153 87.1426V82.8569C39.8153 81.5569 38.8152 79.6283 36.9581 76.0569C36.1581 74.5569 35.2724 72.8854 34.5152 71.2997C35.7766 71.132 36.9237 70.4817 37.7152 69.4854C38.1078 68.9793 38.3989 68.402 38.5724 67.7854C39.2415 68.1069 39.973 68.2776 40.7152 68.2854C40.9863 68.3066 41.2585 68.3066 41.5295 68.2854L43.0438 68.0283C43.8645 67.8913 44.6376 67.5499 45.2917 67.0356C45.9458 66.5213 46.4599 65.8507 46.7867 65.0854C47.536 65.5408 48.3955 65.7828 49.2724 65.7854C49.4912 65.8002 49.7107 65.8002 49.9295 65.7854C51.5579 66.0535 53.2089 66.1588 54.8581 66.0997L47.501 74.4854C47.2701 74.7721 47.1587 75.1368 47.1902 75.5036C47.2216 75.8703 47.3934 76.2108 47.6698 76.454C47.9461 76.6972 48.3057 76.8243 48.6734 76.8088C49.0412 76.7934 49.3888 76.6366 49.6438 76.3711L49.9152 76.0569L57.5295 67.3711C57.6885 67.1907 57.7994 66.973 57.8519 66.7382C57.9043 66.5035 57.8966 66.2593 57.8295 66.0283L57.2724 64.1854C57.1781 63.8844 56.9868 63.6231 56.7284 63.4422C56.47 63.2613 56.1589 63.171 55.8438 63.1854C54.4152 63.314 50.1295 63.3997 47.6867 62.0711C47.4479 61.9596 47.2354 61.7988 47.0631 61.5994C46.8908 61.4 46.7625 61.1664 46.6867 60.914C46.5507 60.2743 46.6053 59.6087 46.8438 58.9997L57.5438 58.3283H57.8153C58.3181 58.2134 58.8442 58.2559 59.3221 58.4501C59.8 58.6443 60.2065 58.9808 60.4867 59.414C60.7295 59.7711 61.0295 60.1854 61.3724 60.6569C62.5438 62.3283 66.1438 67.3711 66.1295 68.5997C64.9153 74.714 63.2724 79.1854 61.4153 80.8568C61.2898 80.9855 61.1882 81.1355 61.1152 81.2997L60.9724 81.2283V87.7711C60.9724 88.15 61.1229 88.5134 61.3908 88.7813C61.6587 89.0492 62.0221 89.1997 62.401 89.1997C62.7798 89.1997 63.1432 89.0492 63.4111 88.7813C63.679 88.5134 63.8295 88.15 63.8295 87.7711V82.2854C66.4152 79.4283 68.0295 73.514 68.9438 68.9711C69.301 67.1568 67.5152 64.1711 63.8295 58.9711V40.1283C65.2529 39.7166 66.5891 39.0485 67.7724 38.1569C69.5107 37.0027 70.878 35.3703 71.7094 33.4566C72.5408 31.5428 72.8009 29.4294 72.4581 27.3711C72.1091 25.9595 71.586 24.5967 70.901 23.314C69.9654 21.8882 69.4687 20.2193 69.4724 18.514C69.5232 18.1731 69.4491 17.8253 69.2636 17.5348C69.0782 17.2442 68.7939 17.0305 68.4633 16.9331C68.1327 16.8356 67.778 16.861 67.4646 17.0045C67.1512 17.148 66.9003 17.4 66.7581 17.714C66.5581 18.1283 66.3581 18.5283 66.1295 18.9283C66.0163 18.1553 65.8 17.401 65.4867 16.6854C65.144 15.9223 64.7428 15.1867 64.2867 14.4854C64.0295 14.0711 63.7724 13.6711 63.5438 13.2426C62.8719 11.9659 62.4867 10.5579 62.4152 9.1169C62.3436 7.67594 62.5874 6.23672 63.1295 4.89971C63.2399 4.63794 63.2698 4.34919 63.2152 4.07037C63.1607 3.79155 63.0243 3.53533 62.8234 3.33444C62.6225 3.13354 62.3663 2.99711 62.0875 2.94258C61.8086 2.88805 61.5199 2.91789 61.2581 3.02829C59.2669 3.7876 57.4742 4.98925 56.0152 6.54257C55.2201 7.38399 54.6018 8.37634 54.197 9.46091C53.7921 10.5455 53.6089 11.7002 53.6581 12.8569C53.7326 13.6768 53.8954 14.4862 54.1438 15.2711C54.2438 15.6711 54.3581 16.0854 54.4438 16.4997C54.9438 19.1426 52.901 23.0854 50.8581 24.5854C50.2724 25.014 49.9724 25.0569 49.8438 25.0426C49.7152 25.0283 49.301 24.6854 49.1867 24.2854C49.0249 23.5875 48.9959 22.8655 49.101 22.1569C49.1236 21.84 49.04 21.5246 48.8634 21.2605C48.6868 20.9965 48.4271 20.7989 48.1256 20.6989C47.824 20.5989 47.4978 20.6023 47.1984 20.7085C46.899 20.8148 46.6435 21.0178 46.4724 21.2854C45.2999 23.0454 44.5328 25.0438 44.2265 27.1363C43.9202 29.2288 44.0822 31.3632 44.701 33.3854C45.3874 35.1139 46.4919 36.6451 47.9155 37.8418C49.3391 39.0386 51.0374 39.8634 52.8581 40.2426V45.114C52.8681 45.1899 52.8681 45.2667 52.8581 45.3426C52.3248 44.534 51.5639 43.9017 50.6714 43.5254C49.779 43.149 48.795 43.0457 47.8438 43.2283L46.1581 43.5569C45.3214 43.6924 44.5366 44.0503 43.8856 44.5932C43.2347 45.136 42.7417 45.8438 42.4581 46.6426C41.5684 46.2224 40.5733 46.0781 39.601 46.2283L38.0867 46.4854C37.4431 46.591 36.8267 46.8229 36.2731 47.1678C35.7195 47.5127 35.2397 47.9637 34.8612 48.4949C34.4828 49.0261 34.2132 49.6269 34.068 50.2627C33.9228 50.8986 33.9049 51.5569 34.0152 52.1997L34.201 53.314C33.6108 53.1511 32.995 53.1026 32.3867 53.1711H31.9724C30.6801 53.3319 29.504 53.9976 28.7009 55.0228C27.8979 56.048 27.5333 57.3494 27.6867 58.6426L28.4438 67.1426ZM30.301 58.3854C30.2439 57.8377 30.4028 57.2893 30.7438 56.8569C30.917 56.6367 31.1327 56.4536 31.3782 56.3186C31.6236 56.1836 31.8937 56.0995 32.1724 56.0711H32.601H32.8581C33.3239 56.0721 33.7762 56.2279 34.1438 56.514C34.3628 56.6883 34.545 56.9043 34.6799 57.1495C34.8148 57.3947 34.8996 57.6643 34.9295 57.9426L35.9152 66.3569C35.9731 66.9091 35.8143 67.4622 35.4724 67.8997C35.2992 68.1199 35.0835 68.3029 34.8381 68.4379C34.5926 68.5729 34.3225 68.6571 34.0438 68.6854H33.6152C33.3437 68.721 33.0677 68.7 32.8047 68.6238C32.5416 68.5476 32.2971 68.4178 32.0867 68.2426C31.864 68.0717 31.6792 67.8566 31.544 67.6107C31.4087 67.3648 31.326 67.0935 31.301 66.814L30.301 58.3854ZM40.301 49.0711C40.7963 49.0707 41.2759 49.2453 41.655 49.5643C42.034 49.8832 42.2881 50.3258 42.3724 50.814L43.801 59.3854C43.6837 60.1186 43.7226 60.8683 43.9152 61.5854C44.0149 61.9243 44.1539 62.2504 44.3295 62.5569V62.7854C44.387 63.3177 44.2444 63.8524 43.9295 64.2854C43.7704 64.5088 43.5685 64.6983 43.3355 64.843C43.1025 64.9876 42.8431 65.0846 42.5724 65.1283L41.0581 65.3854C40.5105 65.4689 39.9519 65.3357 39.501 65.014C39.2696 64.8468 39.0753 64.6336 38.9303 64.3878C38.7853 64.1419 38.6926 63.8688 38.6581 63.5854L37.9438 59.2997L37.7295 57.3711C37.6715 56.9912 37.5757 56.6179 37.4438 56.2569L36.6724 51.5854C36.5857 51.0383 36.7187 50.479 37.0425 50.0295C37.3663 49.58 37.8545 49.2766 38.401 49.1854L39.901 48.9426C40.0184 48.9568 40.1335 48.9856 40.2438 49.0283L40.301 49.0711ZM46.6295 46.3997L48.3295 46.0854H48.7152C49.2041 46.0871 49.677 46.2592 50.0525 46.5722C50.428 46.8851 50.6826 47.3192 50.7724 47.7997L52.201 55.7569L46.2581 56.1283L44.8295 48.8854C44.7698 48.6043 44.768 48.3139 44.8243 48.032C44.8806 47.7502 44.9937 47.4827 45.1568 47.2461C45.3199 47.0094 45.5296 46.8085 45.773 46.6556C46.0164 46.5027 46.2884 46.4011 46.5724 46.3569L46.6295 46.3997ZM55.7152 45.3711V30.6711C55.7152 29.9778 55.9907 29.3128 56.481 28.8226C56.9712 28.3323 57.6362 28.0569 58.3295 28.0569C59.0229 28.0569 59.6878 28.3323 60.1781 28.8226C60.6684 29.3128 60.9438 29.9778 60.9438 30.6711V55.8997C59.7881 55.2543 58.434 55.0608 57.1438 55.3569L55.0724 55.4854L53.9153 49.2854C54.8387 48.1552 55.4583 46.8079 55.7152 45.3711ZM47.4438 32.3854C46.8259 30.5029 46.7811 28.4792 47.3152 26.5711C47.8773 27.268 48.6851 27.7231 49.5724 27.8426C50.6791 27.9258 51.7737 27.5661 52.6153 26.8426C55.4724 24.7711 58.0438 19.7854 57.301 15.914C57.2153 15.4283 57.0867 14.9569 56.9581 14.4854C56.7644 13.8712 56.6304 13.2397 56.5581 12.5997C56.5385 11.8356 56.6697 11.0752 56.9442 10.3618C57.2188 9.64852 57.6313 8.99632 58.1581 8.44257C58.5882 7.96119 59.067 7.52554 59.5867 7.14257C59.2961 9.71103 59.7944 12.3071 61.0152 14.5854C61.2724 15.0711 61.5581 15.5426 61.8581 16.014C62.234 16.5943 62.5682 17.2006 62.8581 17.8283C63.2059 18.6478 63.3732 19.5325 63.3486 20.4224C63.3239 21.3123 63.1079 22.1865 62.7153 22.9854C62.5688 23.2796 62.5283 23.6153 62.6004 23.9359C62.6726 24.2564 62.8531 24.5423 63.1115 24.7454C63.3699 24.9484 63.6904 25.0561 64.019 25.0504C64.3475 25.0447 64.6641 24.9259 64.9152 24.714C65.768 24.0019 66.5437 23.2023 67.2295 22.3283C67.5295 23.0854 67.8867 23.7569 68.2438 24.5569C68.8222 25.6341 69.2729 26.7751 69.5867 27.9569C69.7966 29.4693 69.5755 31.0103 68.9488 32.4028C68.3221 33.7952 67.3152 34.9825 66.0438 35.8283C65.3298 36.345 64.5579 36.7765 63.7438 37.114V30.6711C63.7438 29.22 63.1674 27.8284 62.1413 26.8023C61.1152 25.7762 59.7235 25.1997 58.2724 25.1997C56.8213 25.1997 55.4296 25.7762 54.4035 26.8023C53.3774 27.8284 52.801 29.22 52.801 30.6711V37.2711C51.5889 36.917 50.4724 36.2937 49.5349 35.4477C48.5974 34.6017 47.863 33.5549 47.3867 32.3854H47.4438Z" fill="#07122B"/>
</svg>
