<svg width="100" height="100" viewBox="0 0 100 100" fill="none" xmlns="http://www.w3.org/2000/svg">
<path d="M78.7689 74.0908V79.0956C78.7689 81.8039 76.5735 83.9994 73.8651 83.9994H15.5093C12.8009 83.9994 10.6055 81.8039 10.6055 79.0956V31.3648C10.6055 28.6564 12.8009 26.4609 15.5093 26.4609H20.5036" stroke="#07122B" stroke-width="3" stroke-miterlimit="10" stroke-linecap="round" stroke-linejoin="round"/>
<path d="M84.4901 73.5385H26.1343C23.4259 73.5385 21.2305 71.343 21.2305 68.6346V20.9038C21.2305 18.1955 23.4259 16 26.1343 16H84.4901C87.1985 16 89.3939 18.1955 89.3939 20.9038V68.6346C89.3939 71.343 87.1985 73.5385 84.4901 73.5385Z" stroke="#07122B" stroke-width="3" stroke-miterlimit="10" stroke-linecap="round" stroke-linejoin="round"/>
<path d="M21.2305 59.1537L39.5382 44.7691L49.9997 53.9229L70.9228 35.6152L89.3939 48.6922" stroke="#07122B" stroke-width="3" stroke-miterlimit="10" stroke-linecap="round" stroke-linejoin="round"/>
<path d="M50.0003 36.9225C52.8892 36.9225 55.2311 34.5806 55.2311 31.6917C55.2311 28.8028 52.8892 26.4609 50.0003 26.4609C47.1114 26.4609 44.7695 28.8028 44.7695 31.6917C44.7695 34.5806 47.1114 36.9225 50.0003 36.9225Z" stroke="#07122B" stroke-width="3" stroke-miterlimit="10" stroke-linecap="round" stroke-linejoin="round"/>
</svg>
