<svg width="101" height="100" viewBox="0 0 101 100" fill="none" xmlns="http://www.w3.org/2000/svg">
<g clip-path="url(#clip0_13115_119419)">
<path d="M98.6271 39.1575H83.2414C82.8625 39.1575 82.4992 39.308 82.2313 39.5759C81.9633 39.8438 81.8128 40.2072 81.8128 40.586V41.4289H58.7557C57.2557 41.286 53.0414 41.0575 51.0985 42.7575C48.9557 40.6575 44.4843 41.2575 43.47 41.4289H20.3843V40.5575C20.3843 40.1786 20.2338 39.8152 19.9658 39.5473C19.6979 39.2794 19.3346 39.1289 18.9557 39.1289H2.89855C2.51967 39.1289 2.15631 39.2794 1.8884 39.5473C1.62049 39.8152 1.46998 40.1786 1.46998 40.5575C1.46998 40.9364 1.62049 41.2997 1.8884 41.5676C2.15631 41.8355 2.51967 41.986 2.89855 41.986H17.5271V68.3289H2.36998C1.9911 68.3289 1.62773 68.4794 1.35983 68.7473C1.09192 69.0152 0.941406 69.3786 0.941406 69.7575C0.941406 70.1364 1.09192 70.4997 1.35983 70.7676C1.62773 71.0355 1.9911 71.1861 2.36998 71.1861H18.9557C19.3346 71.1861 19.6979 71.0355 19.9658 70.7676C20.2338 70.4997 20.3843 70.1364 20.3843 69.7575V61.0575C20.7184 60.9936 21.0584 60.9648 21.3985 60.9718C24.6873 64.2296 28.2059 67.2469 31.9271 70.0003C32.1414 70.1289 32.4843 70.3718 32.9128 70.6718C34.9271 72.1003 38.3843 74.5432 41.6557 74.5432C42.299 74.5651 42.9414 74.4782 43.5557 74.286C44.1725 74.1112 44.7371 73.788 45.2002 73.3448C45.6634 72.9015 46.011 72.3517 46.2128 71.7432C46.55 70.5331 46.4695 69.2447 45.9843 68.086C47.0388 67.8896 48.0418 67.4789 48.9313 66.8793C49.8208 66.2798 50.5779 65.5041 51.1557 64.6003C51.722 65.4906 52.4615 66.258 53.3302 66.8568C54.199 67.4556 55.1793 67.8736 56.2128 68.086C55.7373 69.247 55.6569 70.5321 55.9843 71.7432C56.1861 72.3517 56.5337 72.9015 56.9969 73.3448C57.4601 73.788 58.0246 74.1112 58.6414 74.286C59.2524 74.4975 59.8949 74.6038 60.5414 74.6003C63.8128 74.6003 67.27 72.1575 69.2843 70.7289C69.7128 70.4289 70.0557 70.186 70.2843 70.0575C74.0034 67.307 77.5174 64.2895 80.7985 61.0289C81.0128 61.0289 81.3985 61.0289 81.8128 61.1575V69.8289C81.8128 70.2078 81.9633 70.5712 82.2313 70.8391C82.4992 71.107 82.8625 71.2575 83.2414 71.2575H97.5271C97.906 71.2575 98.2694 71.107 98.5373 70.8391C98.8052 70.5712 98.9557 70.2078 98.9557 69.8289C98.9557 69.45 98.8052 69.0867 98.5373 68.8188C98.2694 68.5508 97.906 68.4003 97.5271 68.4003H84.67V42.0146H98.6271C99.006 42.0146 99.3694 41.8641 99.6373 41.5962C99.9052 41.3283 100.056 40.9649 100.056 40.586C100.056 40.2072 99.9052 39.8438 99.6373 39.5759C99.3694 39.308 99.006 39.1575 98.6271 39.1575ZM49.5271 60.4146C49.4949 61.7181 48.9646 62.9596 48.0453 63.8843C47.126 64.8089 45.8875 65.3463 44.5843 65.386C43.3546 64.1201 42.3239 62.6751 41.5271 61.1003C40.8299 59.8997 40.4742 58.5313 40.4986 57.1432C41.9017 57.4594 43.1294 58.3035 43.9271 59.5003C44.0536 59.7136 44.2333 59.8903 44.4487 60.013C44.6641 60.1357 44.9078 60.2003 45.1557 60.2003C45.4121 60.2003 45.6638 60.1312 45.8843 60.0003C46.2101 59.8071 46.4458 59.4923 46.5395 59.1253C46.6333 58.7583 46.5774 58.369 46.3843 58.0432C45.788 57.1108 45.0124 56.306 44.1026 55.6758C43.1928 55.0455 42.1668 54.6023 41.0843 54.3718C41.1257 54.2503 41.1734 54.1311 41.2271 54.0146L41.9271 52.3289C42.09 51.986 42.1101 51.5925 41.9828 51.2348C41.8556 50.8771 41.5914 50.5847 41.2486 50.4218C40.9057 50.2588 40.5121 50.2388 40.1544 50.3661C39.7968 50.4933 39.5043 50.7574 39.3414 51.1003L38.5414 52.7718C37.7955 54.326 37.4505 56.0422 37.5378 57.7639C37.6252 59.4857 38.1421 61.1581 39.0414 62.6289C39.9669 64.2961 41.084 65.8495 42.37 67.2575C42.4049 67.4195 42.4677 67.5742 42.5557 67.7146C43.1915 68.623 43.4943 69.7231 43.4128 70.8289C43.4128 70.9575 43.2557 71.2861 42.57 71.5146C40.2128 72.3432 36.37 69.6289 34.5128 68.3289C33.9985 67.9575 33.57 67.6575 33.2985 67.5003C29.9104 64.9459 26.6762 62.1935 23.6128 59.2575C23.1414 58.3289 22.0414 57.9575 20.3414 58.1575V44.286H43.5986H43.8557C45.5986 43.9718 48.9985 43.9289 49.3557 45.2432C49.5128 45.886 49.87 48.5718 49.5271 60.4146ZM78.6271 59.1289C75.552 62.1196 72.2933 64.9155 68.87 67.5003C68.4464 67.7551 68.0363 68.0316 67.6414 68.3289C65.7843 69.6289 61.9271 72.3432 59.5843 71.5146C58.8985 71.2861 58.7985 70.9575 58.7557 70.8289C58.6682 69.7225 58.9715 68.6205 59.6128 67.7146C59.6953 67.5714 59.7577 67.4176 59.7985 67.2575C61.0767 65.8465 62.1888 64.2935 63.1128 62.6289C64.0122 61.1581 64.5291 59.4857 64.6164 57.7639C64.7038 56.0422 64.3587 54.326 63.6128 52.7718L62.8128 51.1003C62.7411 50.9177 62.6325 50.7518 62.4939 50.613C62.3552 50.4742 62.1895 50.3654 62.007 50.2935C61.8244 50.2216 61.629 50.188 61.4329 50.1949C61.2369 50.2018 61.0443 50.249 60.8673 50.3336C60.6903 50.4181 60.5325 50.5383 60.404 50.6865C60.2754 50.8347 60.1788 51.0078 60.12 51.195C60.0613 51.3822 60.0418 51.5795 60.0627 51.7746C60.0836 51.9697 60.1444 52.1584 60.2414 52.3289L61.0414 54.0003C61.0414 54.1146 61.1271 54.2432 61.1843 54.3575C60.0997 54.5877 59.0716 55.0308 58.1594 55.661C57.2473 56.2912 56.4691 57.096 55.87 58.0289C55.7721 58.1908 55.7073 58.3706 55.6795 58.5578C55.6517 58.7449 55.6613 58.9357 55.7078 59.1192C55.7543 59.3026 55.8368 59.4749 55.9505 59.6262C56.0642 59.7775 56.2067 59.9046 56.37 60.0003C56.592 60.1275 56.8427 60.1963 57.0985 60.2003C57.3465 60.2003 57.5901 60.1357 57.8055 60.013C58.0209 59.8903 58.2007 59.7136 58.3271 59.5003C59.1249 58.3035 60.3525 57.4594 61.7557 57.1432C61.7874 58.5579 61.4104 59.9516 60.67 61.1575C59.8732 62.7323 58.8425 64.1772 57.6128 65.4432C56.3107 65.4 55.0742 64.8615 54.1556 63.9376C53.237 63.0137 52.7057 61.7741 52.67 60.4718C52.4985 54.8575 52.67 47.0575 52.8843 45.1146C52.8843 44.6146 55.5271 44.0718 58.5985 44.3718H81.8128V58.2289C80.1271 57.9432 79.07 58.286 78.6271 59.1289Z" fill="#07122B"/>
<path d="M39.7705 26.5005C39.4462 26.6913 39.2103 27.0024 39.114 27.3662C39.0177 27.73 39.0688 28.117 39.2563 28.4433L41.9277 33.0148C42.0553 33.2301 42.2374 33.4081 42.4555 33.531C42.6736 33.6539 42.9202 33.7172 43.1705 33.7148C43.4228 33.7173 43.6705 33.6479 43.8848 33.5148C44.2092 33.3239 44.4451 33.0129 44.5414 32.6491C44.6377 32.2853 44.5866 31.8982 44.3991 31.5719L41.7277 27.0005C41.5344 26.6747 41.2197 26.439 40.8526 26.3452C40.4856 26.2515 40.0964 26.3073 39.7705 26.5005V26.5005Z" fill="#07122B"/>
<path d="M61.0144 26.9849C60.5386 27.7241 60.0136 28.4305 59.443 29.0992C58.7808 29.8758 58.179 30.702 57.643 31.5706C57.4555 31.8969 57.4044 32.284 57.5007 32.6477C57.597 33.0115 57.8329 33.3226 58.1573 33.5134C58.3705 33.6488 58.619 33.7184 58.8715 33.7134C59.1195 33.7134 59.3631 33.6488 59.5785 33.5261C59.7939 33.4034 59.9737 33.2267 60.1001 33.0134C60.5759 32.2742 61.1009 31.5678 61.6715 30.8992C62.3387 30.123 62.9452 29.2967 63.4858 28.4277C63.6733 28.1014 63.7244 27.7143 63.6281 27.3506C63.5318 26.9868 63.2959 26.6757 62.9715 26.4849C62.6457 26.2917 62.2565 26.2359 61.8894 26.3296C61.5224 26.4234 61.2077 26.6591 61.0144 26.9849Z" fill="#07122B"/>
<path d="M43.8401 79.8994C43.6743 79.8095 43.4923 79.7532 43.3046 79.734C43.1169 79.7148 42.9273 79.7329 42.7466 79.7874C42.566 79.8418 42.3979 79.9315 42.2521 80.0513C42.1064 80.171 41.9857 80.3185 41.8973 80.4851L39.2258 85.5137C39.0478 85.849 39.0102 86.2413 39.1214 86.6043C39.2325 86.9673 39.4834 87.2713 39.8187 87.4494C40.154 87.6275 40.5463 87.6651 40.9093 87.5539C41.2723 87.4427 41.5763 87.1919 41.7544 86.8565L44.4258 81.828C44.603 81.4944 44.6408 81.1042 44.5311 80.7428C44.4213 80.3814 44.1729 80.0781 43.8401 79.8994Z" fill="#07122B"/>
<path d="M61.6965 82.8563C61.1116 82.115 60.5816 81.332 60.1108 80.5135C60.0306 80.3348 59.9145 80.1745 59.7697 80.0426C59.6249 79.9107 59.4546 79.8099 59.2693 79.7466C59.0839 79.6833 58.8875 79.6588 58.6923 79.6746C58.4971 79.6904 58.3072 79.7461 58.1345 79.8384C57.9617 79.9307 57.8098 80.0575 57.6881 80.2109C57.5664 80.3644 57.4776 80.5412 57.4271 80.7305C57.3767 80.9197 57.3657 81.1173 57.3948 81.311C57.4239 81.5047 57.4926 81.6903 57.5965 81.8563C58.1331 82.797 58.7346 83.6992 59.3965 84.5563C59.9787 85.2965 60.504 86.0797 60.9679 86.8992C61.146 87.2345 61.45 87.4853 61.813 87.5965C62.176 87.7077 62.5683 87.6701 62.9036 87.492C63.2389 87.314 63.4898 87.01 63.6009 86.647C63.7121 86.2839 63.6745 85.8916 63.4965 85.5563C62.9598 84.6156 62.3584 83.7135 61.6965 82.8563V82.8563Z" fill="#07122B"/>
</g>
<defs>
<clipPath id="clip0_13115_119419">
<rect width="100" height="100" fill="white" transform="translate(0.5)"/>
</clipPath>
</defs>
</svg>
