<svg width="100" height="100" viewBox="0 0 100 100" fill="none" xmlns="http://www.w3.org/2000/svg">
<path d="M92.3586 53.5294C91.9336 52.8122 91.3212 52.2245 90.5872 51.8294C88.8297 50.8591 86.8017 50.4943 84.8162 50.7912C82.8308 51.0882 80.9982 52.0303 79.6015 53.4722C78.8048 54.4069 78.1148 55.4275 77.5443 56.5151L77.3157 56.8865L78.5729 36.4151C78.7443 33.6722 78.9729 29.9151 77.1443 26.9151C76.7424 26.1983 76.1845 25.5809 75.512 25.1086C74.8394 24.6363 74.0693 24.3212 73.2586 24.1865C73.2831 23.4497 73.2304 22.7124 73.1014 21.9865C72.8789 20.7013 72.2297 19.5287 71.2586 18.6579C70.3988 17.9876 69.3611 17.5843 68.2743 17.498C67.1875 17.4116 66.0992 17.6461 65.1443 18.1722C64.2478 18.6673 63.4683 19.3494 62.8586 20.1722C62.2333 19.9116 61.5551 19.8028 60.8797 19.855C60.2042 19.9071 59.5508 20.1187 58.9729 20.4722C57.2707 21.458 55.982 23.0257 55.3443 24.8865C54.8266 26.3935 54.4909 27.957 54.3443 29.5437C53.4484 29.3805 52.5239 29.5644 51.7586 30.0579C50.0519 31.0421 48.7582 32.6098 48.1157 34.4722C47.5713 36.1008 47.2259 37.7893 47.0872 39.5008L46.8729 41.3294L45.0729 34.8437C44.7825 33.7751 44.1621 32.8254 43.3001 32.1302C42.4382 31.435 41.3787 31.0298 40.2729 30.9722C40.038 30.9858 39.8041 31.0145 39.5729 31.0579L38.4014 24.7008C38.4079 24.6248 38.4079 24.5483 38.4014 24.4722C38.0607 23.3363 37.3527 22.3456 36.3884 21.6553C35.4241 20.9651 34.258 20.6143 33.0729 20.6579C32.8827 20.6439 32.6917 20.6439 32.5014 20.6579C32.062 19.7154 31.355 18.923 30.4684 18.3794C29.5819 17.8358 28.555 17.565 27.5157 17.6008C26.5597 17.5685 25.6159 17.8234 24.8061 18.3327C23.9964 18.842 23.3578 19.5822 22.9729 20.4579C22.8271 21.6726 22.8271 22.9004 22.9729 24.1151C19.3157 25.1151 18.9443 26.7437 18.6872 29.2294V29.7865C18.4157 32.1151 20.1157 45.5008 21.2729 54.3437C18.3443 52.1722 14.13 49.8151 11.6586 51.7151C7.90145 54.5722 12.2586 60.8579 16.8443 67.5579L17.9157 69.1008C21.9443 75.0294 22.3157 91.1865 22.3157 91.3437C22.3157 91.7225 22.4662 92.0859 22.7342 92.3538C23.0021 92.6217 23.3654 92.7722 23.7443 92.7722C24.1232 92.7722 24.4865 92.6217 24.7545 92.3538C25.0224 92.0859 25.1729 91.7225 25.1729 91.3437C25.0331 86.2085 24.4548 81.0947 23.4443 76.0579C22.9156 73.0321 21.841 70.1277 20.2729 67.4865L19.2014 65.9294C16.4443 61.9008 11.8157 55.1579 13.3729 53.9865C14.2872 53.1865 18.5729 55.7151 21.7014 58.4865C21.9443 60.2865 22.13 61.6008 22.2014 62.1437C22.2375 62.3891 22.3368 62.6209 22.4896 62.8162C22.6424 63.0116 22.8434 63.1638 23.0729 63.2579C23.2446 63.3311 23.4291 63.37 23.6157 63.3722H23.8157C24.188 63.319 24.5242 63.1212 24.7515 62.8217C24.9789 62.5221 25.0789 62.1451 25.03 61.7722C24.63 58.9151 24.1729 55.5437 23.73 52.1722C22.43 42.1722 21.2014 31.8151 21.3872 30.1294V29.5437C21.5586 27.8865 21.63 27.4437 23.0729 27.0151C23.2729 29.1865 23.5586 31.7437 23.8729 34.4722C24.63 40.9437 25.63 48.3865 26.4014 53.9722C26.45 54.3155 26.6216 54.6294 26.8845 54.8554C27.1473 55.0815 27.4834 55.2042 27.83 55.2008H28.03C28.4051 55.1477 28.7437 54.9478 28.9714 54.6451C29.1991 54.3424 29.2973 53.9616 29.2443 53.5865C29.0014 51.8437 28.7443 49.9294 28.4729 47.8722C27.0443 36.7008 25.3157 22.8579 25.6157 21.3008C25.8433 21.0294 26.1307 20.8145 26.4555 20.6732C26.7803 20.5319 27.1335 20.468 27.4872 20.4865C27.9363 20.4836 28.3786 20.5964 28.7714 20.8141C29.1643 21.0318 29.4944 21.347 29.73 21.7294C29.1365 22.15 28.6874 22.7437 28.4443 23.4294C28.1014 24.4865 28.7872 30.1579 29.7586 36.8294C30.6157 42.6437 31.7014 49.2151 32.6157 54.1579C32.6736 54.4934 32.8492 54.7971 33.1112 55.0145C33.3731 55.2319 33.704 55.3486 34.0443 55.3437H34.2872C34.4733 55.3126 34.6514 55.2449 34.8112 55.1446C34.971 55.0443 35.1094 54.9133 35.2183 54.7592C35.3272 54.6052 35.4045 54.431 35.4457 54.2469C35.487 54.0628 35.4914 53.8723 35.4586 53.6865L34.8586 50.1437C32.7729 38.1294 30.9586 25.7865 31.1586 24.2865C31.3911 24.0173 31.6815 23.8042 32.0081 23.6632C32.3347 23.5222 32.6889 23.4569 33.0443 23.4722C33.6109 23.452 34.1681 23.6206 34.6284 23.9517C35.0887 24.2827 35.426 24.7572 35.5872 25.3008L36.93 32.5579C36.6542 32.8909 36.4456 33.2741 36.3157 33.6865C36.1027 36.2193 36.218 38.769 36.6586 41.2722C37.1586 45.4579 37.9157 50.2722 38.3586 53.0437C38.3812 53.2347 38.4422 53.4192 38.5379 53.5861C38.6335 53.753 38.7619 53.8989 38.9154 54.0149C39.0688 54.131 39.2441 54.2149 39.4307 54.2615C39.6173 54.3082 39.8115 54.3167 40.0014 54.2865C40.0014 54.2865 40.0014 54.2865 40.0729 54.2865C40.2588 54.257 40.4371 54.191 40.5975 54.0924C40.7579 53.9937 40.8972 53.8643 41.0074 53.7116C41.1175 53.559 41.1965 53.386 41.2396 53.2027C41.2827 53.0194 41.2892 52.8294 41.2586 52.6437C39.9729 44.7865 38.8157 35.8865 39.1014 34.6008C39.224 34.3705 39.4074 34.1782 39.6315 34.0448C39.8556 33.9113 40.112 33.8418 40.3729 33.8437C41.2157 33.8437 41.93 34.5579 42.3729 35.7294L48.0157 56.1437C49.5641 61.6453 49.9964 67.401 49.2872 73.0722C48.8406 76.7916 48.0075 80.4542 46.8014 84.0008L44.0729 91.7865L43.0872 94.6437C43.0238 94.8209 42.9961 95.0089 43.0056 95.1969C43.0152 95.3849 43.0618 95.5692 43.1428 95.7391C43.2237 95.909 43.3375 96.0613 43.4775 96.1871C43.6175 96.3129 43.781 96.4098 43.9586 96.4722C44.1098 96.5271 44.2692 96.5561 44.43 96.5579C44.7253 96.5568 45.013 96.4641 45.2535 96.2927C45.494 96.1213 45.6754 95.8796 45.7729 95.6008L49.4872 84.9865C49.6872 84.4294 49.8586 83.8294 50.0443 83.2579C50.2586 83.6294 50.4729 84.0008 50.7157 84.3865L50.8872 84.6579C51.7586 86.0865 52.6443 87.4294 52.3157 88.6579C52.2395 89.0272 52.3124 89.4117 52.5184 89.7274C52.7245 90.0432 53.047 90.2647 53.4157 90.3437C53.5152 90.3577 53.6162 90.3577 53.7157 90.3437C54.0479 90.3511 54.3723 90.2424 54.6331 90.0364C54.8938 89.8304 55.0746 89.54 55.1443 89.2151C55.6443 86.8579 54.3157 84.7722 53.2586 83.1008L53.0872 82.8579C52.3122 81.6359 51.6523 80.3447 51.1157 79.0008C51.5014 77.2294 51.83 75.4008 52.0729 73.4722C52.8364 67.4239 52.3798 61.2839 50.73 55.4151L48.93 48.9437C49.1872 46.0865 49.5157 43.0294 49.8872 39.9008C50.0147 38.4159 50.3069 36.9497 50.7586 35.5294C51.1699 34.3344 51.9894 33.3227 53.0729 32.6722C53.2579 32.5649 53.4543 32.4786 53.6586 32.4151C53.7724 32.4663 53.8783 32.5337 53.9729 32.6151C53.191 38.4725 52.8186 44.3773 52.8586 50.2865C52.8586 50.6654 53.0091 51.0288 53.277 51.2967C53.5449 51.5646 53.9083 51.7151 54.2872 51.7151C54.666 51.7151 55.0294 51.5646 55.2973 51.2967C55.5652 51.0288 55.7157 50.6654 55.7157 50.2865C55.7093 43.5941 56.1868 36.91 57.1443 30.2865C57.2578 28.8043 57.5505 27.3413 58.0157 25.9294C58.419 24.7342 59.2343 23.7215 60.3157 23.0722C60.6564 22.8451 61.0657 22.744 61.4729 22.7865C60.954 24.3813 60.6185 26.0301 60.4729 27.7008C59.5048 34.443 59.0274 41.2466 59.0443 48.0579C59.0443 48.4368 59.1948 48.8002 59.4627 49.0681C59.7306 49.336 60.094 49.4865 60.4729 49.4865C60.8518 49.4865 61.2151 49.336 61.483 49.0681C61.7509 48.8002 61.9015 48.4368 61.9015 48.0579C61.9002 41.3657 62.3776 34.682 63.33 28.0579C63.4436 26.5757 63.7362 25.1127 64.2014 23.7008C64.2729 23.4865 64.3729 23.3151 64.4586 23.1151C64.5825 22.9765 64.6708 22.8098 64.7157 22.6294C65.13 21.8662 65.7483 21.2331 66.5014 20.8008C66.942 20.5525 67.4433 20.433 67.9484 20.4557C68.4536 20.4784 68.9422 20.6426 69.3586 20.9294C69.8347 21.3894 70.1503 21.9905 70.2586 22.6437C70.3735 23.4191 70.4022 24.2048 70.3443 24.9865C69.3713 25.6009 68.5856 26.4706 68.0729 27.5008C67.2431 29.3682 66.8055 31.386 66.7872 33.4294C66.4586 38.2437 66.3443 43.1294 66.4157 47.9579C66.4157 48.3368 66.5662 48.7002 66.8342 48.9681C67.1021 49.236 67.4654 49.3865 67.8443 49.3865C68.2232 49.3865 68.5865 49.236 68.8545 48.9681C69.1224 48.7002 69.2729 48.3368 69.2729 47.9579C69.2729 43.2008 69.2729 38.4008 69.6443 33.6722C69.6368 32.0181 69.9674 30.3798 70.6157 28.8579C71.0586 28.0151 71.93 27.1294 72.8157 27.1722C73.2143 27.2515 73.5892 27.4217 73.9113 27.6695C74.2334 27.9172 74.494 28.2359 74.6729 28.6008C75.9586 30.6579 75.9015 33.3579 75.7157 36.4151L74.3586 58.5722C74.3446 58.8359 74.4039 59.0983 74.53 59.3303C74.6561 59.5623 74.844 59.7549 75.0729 59.8865C73.3993 61.6089 71.2919 62.8477 68.9729 63.4722C68.6054 63.5707 68.292 63.8112 68.1018 64.1407C67.9116 64.4703 67.8601 64.8619 67.9586 65.2294C68.0571 65.5969 68.2976 65.9102 68.6271 66.1004C68.9566 66.2906 69.3482 66.3422 69.7157 66.2437C73.5745 65.1848 76.9158 62.7575 79.1157 59.4151C79.43 58.9151 79.73 58.4008 80.03 57.8865C80.4928 56.986 81.0585 56.1423 81.7157 55.3722C82.6699 54.4121 83.9097 53.7873 85.2491 53.5915C86.5885 53.3957 87.9553 53.6396 89.1443 54.2865C89.4179 54.422 89.6535 54.6232 89.83 54.8722C89.9661 55.2607 89.9661 55.6838 89.83 56.0722C89.3029 57.5142 88.5134 58.8462 87.5015 60.0008L86.9015 60.8151C85.5039 62.8109 84.207 64.8754 83.0157 67.0008C81.5082 69.8391 79.713 72.5151 77.6586 74.9865L76.73 75.9865C75.3696 77.2758 74.2603 78.8065 73.4586 80.5008C72.6673 83.0891 72.5884 85.8428 73.23 88.4722C73.2848 88.8103 73.4592 89.1174 73.7214 89.3376C73.9836 89.5579 74.3162 89.6766 74.6586 89.6722H74.8872C75.0731 89.6427 75.2514 89.5767 75.4118 89.4781C75.5722 89.3794 75.7115 89.25 75.8216 89.0974C75.9318 88.9447 76.0108 88.7717 76.0539 88.5884C76.097 88.4052 76.1034 88.2152 76.0729 88.0294C75.5079 85.9189 75.5079 83.697 76.0729 81.5865C76.7423 80.2214 77.6576 78.9913 78.7729 77.9579C79.1015 77.6008 79.43 77.2579 79.7443 76.9008C81.933 74.2895 83.8478 71.4604 85.4586 68.4579C86.5986 66.4143 87.8431 64.4307 89.1872 62.5151L89.7586 61.7294C90.9772 60.305 91.9129 58.6614 92.5157 56.8865C92.7171 56.3452 92.807 55.7688 92.78 55.1919C92.753 54.615 92.6096 54.0495 92.3586 53.5294V53.5294Z" fill="#07122B"/>
<path d="M35.2427 9.32818C34.9169 9.52145 34.6812 9.8362 34.5874 10.2032C34.4937 10.5702 34.5495 10.9595 34.7427 11.2853L37.4141 15.8425C37.5388 16.0584 37.7177 16.2379 37.9333 16.3632C38.1488 16.4885 38.3934 16.5552 38.6427 16.5568C38.8985 16.5527 39.1492 16.4839 39.3712 16.3568C39.697 16.1635 39.9327 15.8487 40.0265 15.4817C40.1203 15.1147 40.0644 14.7255 39.8712 14.3996L37.1427 9.84247C36.9523 9.52948 36.649 9.30159 36.2954 9.20587C35.9418 9.11016 35.5649 9.15395 35.2427 9.32818V9.32818Z" fill="#07122B"/>
<path d="M56.4841 9.8279C56.011 10.569 55.4859 11.2755 54.9127 11.9422C54.2455 12.7133 53.6389 13.5348 53.0984 14.3993C53.0033 14.5615 52.9412 14.7409 52.9156 14.9271C52.89 15.1134 52.9015 15.3028 52.9493 15.4847C52.997 15.6665 53.0802 15.8371 53.1941 15.9867C53.3079 16.1363 53.4502 16.262 53.6127 16.3565C53.829 16.4849 54.0754 16.5539 54.3269 16.5565C54.5787 16.5575 54.8262 16.4919 55.0445 16.3665C55.2627 16.2411 55.4439 16.0602 55.5698 15.8422C56.0441 15.1064 56.5691 14.4047 57.1412 13.7422C57.8097 12.9671 58.4164 12.1408 58.9555 11.2708C59.0731 11.1091 59.1554 10.9246 59.1972 10.7291C59.239 10.5336 59.2393 10.3315 59.198 10.136C59.1568 9.94036 59.075 9.75559 58.9579 9.59359C58.8408 9.4316 58.691 9.29598 58.5182 9.19551C58.3454 9.09505 58.1534 9.03196 57.9547 9.01034C57.756 8.98871 57.555 9.00903 57.3646 9.06998C57.1742 9.13093 56.9987 9.23116 56.8495 9.36417C56.7003 9.49719 56.5807 9.66003 56.4984 9.84219L56.4841 9.8279Z" fill="#07122B"/>
<path d="M45.1751 5.01451L44.918 10.1717C44.9175 10.5385 45.0582 10.8914 45.3108 11.1574C45.5635 11.4233 45.9087 11.5819 46.2751 11.6002C46.654 11.6002 47.0174 11.4497 47.2853 11.1818C47.5532 10.9139 47.7037 10.5505 47.7037 10.1717L47.9608 5.01451C47.9613 4.64769 47.8206 4.29474 47.568 4.02879C47.3153 3.76285 46.97 3.60428 46.6037 3.58594C46.2248 3.58594 45.8614 3.73645 45.5935 4.00436C45.3256 4.27227 45.1751 4.63563 45.1751 5.01451V5.01451Z" fill="#07122B"/>
</svg>
